<svg xmlns="http://www.w3.org/2000/svg" width="1200" height="420" viewBox="0 0 1200 420" role="img" aria-labelledby="title desc"><title id="title">Kanakoy vaporwave city animation</title><desc id="desc">Animated vaporwave skyline with neon sun, palm trees, perspective road, vector police cars, airplane, clouds and a custom vector ninja.</desc><defs><linearGradient id="outerBg" x1="0" y1="0" x2="1" y2="1"><stop offset="0" stop-color="#0b0712"/><stop offset="1" stop-color="#14071c"/></linearGradient><linearGradient id="sky" x1="0" y1="0" x2="0" y2="1"><stop offset="0" stop-color="#24103f"/><stop offset=".62" stop-color="#ff2ca6"/><stop offset="1" stop-color="#5b185f"/></linearGradient><linearGradient id="sunGrad" x1="0" y1="0" x2="0" y2="1"><stop offset="0" stop-color="#fff36b"/><stop offset=".45" stop-color="#ff8f45"/><stop offset="1" stop-color="#ff2ca6"/></linearGradient><linearGradient id="roadGrad" x1="0" y1="0" x2="0" y2="1"><stop offset="0" stop-color="#28133a"/><stop offset="1" stop-color="#09040f"/></linearGradient><linearGradient id="horizonGlow" x1="0" y1="0" x2="1" y2="0"><stop offset="0" stop-color="#00e5ff" stop-opacity="0"/><stop offset=".45" stop-color="#ff32c8" stop-opacity=".9"/><stop offset=".55" stop-color="#00e5ff" stop-opacity=".9"/><stop offset="1" stop-color="#ff32c8" stop-opacity="0"/></linearGradient><filter id="glowCyan" x="-80%" y="-80%" width="260%" height="260%"><feGaussianBlur stdDeviation="4" result="b"/><feMerge><feMergeNode in="b"/><feMergeNode in="SourceGraphic"/></feMerge></filter><filter id="glowPink" x="-80%" y="-80%" width="260%" height="260%"><feGaussianBlur stdDeviation="5" result="b"/><feMerge><feMergeNode in="b"/><feMergeNode in="SourceGraphic"/></feMerge></filter><clipPath id="scene"><rect x="24" y="58" width="1152" height="338" rx="14"/></clipPath><clipPath id="sunClip"><circle cx="600" cy="150" r="94"/></clipPath></defs><rect width="1200" height="420" rx="20" fill="url(#outerBg)"/><rect x="1" y="1" width="1198" height="418" rx="19" fill="none" stroke="#352143"/><g font-family="ui-monospace, SFMono-Regular, Menlo, Consolas, monospace"><circle cx="42" cy="29" r="5" fill="#ff5f57"/><circle cx="60" cy="29" r="5" fill="#febc2e"/><circle cx="78" cy="29" r="5" fill="#28c840"/><text x="100" y="34" font-size="13" fill="#9f7db4">kanakoy@github: ~/vaporwave-city</text><text x="940" y="34" font-size="11" fill="#00e5ff">NINJA ONLINE // 198X</text></g><rect x="24" y="49" width="1152" height="1" fill="url(#horizonGlow)" opacity=".9"/><g clip-path="url(#scene)"><rect x="24" y="58" width="1152" height="338" fill="url(#sky)"/><g opacity=".12" stroke="#ffffff" stroke-width="1"><path d="M24 76H1176M24 90H1176M24 104H1176M24 118H1176M24 132H1176M24 146H1176M24 160H1176M24 174H1176M24 188H1176M24 202H1176M24 216H1176M24 230H1176M24 244H1176M24 258H1176M24 272H1176M24 286H1176M24 300H1176M24 314H1176M24 328H1176M24 342H1176M24 356H1176M24 370H1176M24 384H1176"/></g><circle cx="600" cy="150" r="94" fill="url(#sunGrad)" filter="url(#glowPink)" opacity=".96"><animate attributeName="r" values="92;97;92" dur="6s" repeatCount="indefinite"/></circle><g clip-path="url(#sunClip)" fill="#38134f" opacity=".78"><rect x="500" y="112" width="200" height="6"/><rect x="500" y="128" width="200" height="7"/><rect x="500" y="146" width="200" height="8"/><rect x="500" y="166" width="200" height="10"/><rect x="500" y="190" width="200" height="12"/></g><g fill="#f5eaff" opacity=".82"><g transform="translate(-110 0)"><g transform="translate(0 0)"><ellipse cx="140" cy="105" rx="30" ry="11"/><circle cx="120" cy="101" r="12"/><circle cx="142" cy="95" r="16"/><circle cx="164" cy="102" r="11"/></g><g transform="translate(360 -18)"><ellipse cx="140" cy="105" rx="30" ry="11"/><circle cx="120" cy="101" r="12"/><circle cx="142" cy="95" r="16"/><circle cx="164" cy="102" r="11"/></g><g transform="translate(760 2)"><ellipse cx="140" cy="105" rx="30" ry="11"/><circle cx="120" cy="101" r="12"/><circle cx="142" cy="95" r="16"/><circle cx="164" cy="102" r="11"/></g><animateTransform attributeName="transform" type="translate" values="-110 0;90 0;-110 0" dur="24s" repeatCount="indefinite"/></g></g><g fill="#00e5ff" stroke="#ffffff" stroke-width="1.5" filter="url(#glowCyan)"><g transform="translate(330 105) scale(.9)"><path d="M0 0 L34 4 L52 -10 L58 -8 L45 5 L67 9 L69 14 L44 12 L30 29 L24 28 L30 12 L0 8 Z"/><animateMotion path="M0 0 C210 -50 420 10 660 -20" dur="10s" repeatCount="indefinite"/><animate attributeName="opacity" values="0;1;1;0" keyTimes="0;.08;.9;1" dur="10s" repeatCount="indefinite"/></g></g><g transform="translate(0 0)"><rect x="300" y="181" width="28" height="54" fill="#161027"/><rect x="334" y="166" width="34" height="69" fill="#211034"/><rect x="374" y="190" width="22" height="45" fill="#120b22"/><rect x="405" y="152" width="42" height="83" fill="#24103c"/><rect x="455" y="176" width="31" height="59" fill="#130c25"/><rect x="714" y="170" width="30" height="65" fill="#170c2a"/><rect x="750" y="150" width="48" height="85" fill="#24103c"/><rect x="805" y="180" width="26" height="55" fill="#160c29"/><g fill="#ff32c8" opacity=".8"><rect x="341" y="177" width="4" height="4"/><rect x="351" y="177" width="4" height="4"/><rect x="414" y="165" width="5" height="5"/><rect x="428" y="165" width="5" height="5"/><rect x="762" y="164" width="5" height="5"/><rect x="780" y="164" width="5" height="5"/></g></g><g fill="#13091e" stroke="#2b123d" stroke-width="1"><g transform="translate(205 110) scale(1.25)"><path d="M0 130 C8 88 7 42 0 0 C12 42 12 88 8 130 Z"/><path d="M3 10 C-28 -4 -44 7 -60 20 C-37 13 -20 16 1 25 Z"/><path d="M5 10 C30 -9 50 -4 68 7 C40 7 23 16 7 25 Z"/><path d="M4 16 C-7 -17 -2 -38 8 -55 C8 -27 14 -10 13 11 Z"/><path d="M8 16 C20 -15 38 -27 60 -30 C39 -16 28 0 14 23 Z"/></g><g transform="translate(950 110) scale(-1.25 1.25)"><path d="M0 130 C8 88 7 42 0 0 C12 42 12 88 8 130 Z"/><path d="M3 10 C-28 -4 -44 7 -60 20 C-37 13 -20 16 1 25 Z"/><path d="M5 10 C30 -9 50 -4 68 7 C40 7 23 16 7 25 Z"/><path d="M4 16 C-7 -17 -2 -38 8 -55 C8 -27 14 -10 13 11 Z"/><path d="M8 16 C20 -15 38 -27 60 -30 C39 -16 28 0 14 23 Z"/></g></g><rect x="90" y="232" width="1020" height="2" fill="url(#horizonGlow)" filter="url(#glowPink)"/><path d="M500 226 L230 396 H970 L700 226 Z" fill="url(#roadGrad)"/><path d="M500 226 L230 396M700 226L970 396" stroke="#ff32c8" stroke-width="2.2" filter="url(#glowPink)"/><path d="M600 226 L600 396" stroke="#00e5ff" stroke-width="2" opacity=".9"/><g stroke="#00e5ff" stroke-width="1.3" opacity=".78" filter="url(#glowCyan)"><path d="M542 226L420 396M566 226L510 396M634 226L690 396M658 226L780 396"/></g><g stroke="#ff32c8" stroke-width="1.2" opacity=".75"><path d="M480 246H720M444 268H756M405 294H795M360 325H840M305 362H895"/><animateTransform attributeName="transform" type="translate" values="0 0;0 24;0 0" dur="2.2s" repeatCount="indefinite"/></g><g transform="translate(500 255)"><g><path d="M-18 4 L-10 -4 H10 L18 4 L22 6 V16 H-22 V6 Z" fill="#d9e5ff" stroke="#0c1730" stroke-width="1.2"/><rect x="-10" y="-1" width="20" height="7" rx="1" fill="#24446e"/><rect x="-7" y="-7" width="6" height="4" fill="#ff315e"/><rect x="2" y="-7" width="6" height="4" fill="#00cfff"/><circle cx="-13" cy="16" r="4" fill="#05070d"/><circle cx="13" cy="16" r="4" fill="#05070d"/><animateTransform attributeName="transform" type="translate" values="0 0;-115 110;0 0" dur="5.2s" repeatCount="indefinite"/></g></g><g transform="translate(700 252)"><g><path d="M-18 4 L-10 -4 H10 L18 4 L22 6 V16 H-22 V6 Z" fill="#d9e5ff" stroke="#0c1730" stroke-width="1.2"/><rect x="-10" y="-1" width="20" height="7" rx="1" fill="#24446e"/><rect x="-7" y="-7" width="6" height="4" fill="#ff315e"/><rect x="2" y="-7" width="6" height="4" fill="#00cfff"/><circle cx="-13" cy="16" r="4" fill="#05070d"/><circle cx="13" cy="16" r="4" fill="#05070d"/><animateTransform attributeName="transform" type="translate" values="0 0;120 112;0 0" dur="5.8s" begin="-.8s" repeatCount="indefinite"/></g></g><g transform="translate(548 235) scale(.72)"><g><path d="M-18 4 L-10 -4 H10 L18 4 L22 6 V16 H-22 V6 Z" fill="#d9e5ff" stroke="#0c1730" stroke-width="1.2"/><rect x="-10" y="-1" width="20" height="7" rx="1" fill="#24446e"/><rect x="-7" y="-7" width="6" height="4" fill="#ff315e"/><rect x="2" y="-7" width="6" height="4" fill="#00cfff"/><circle cx="-13" cy="16" r="4" fill="#05070d"/><circle cx="13" cy="16" r="4" fill="#05070d"/><animateTransform attributeName="transform" type="translate" values="0 0;-70 100;0 0" dur="6.6s" begin="-2s" repeatCount="indefinite"/></g></g><g transform="translate(650 236) scale(.68)"><g><path d="M-18 4 L-10 -4 H10 L18 4 L22 6 V16 H-22 V6 Z" fill="#d9e5ff" stroke="#0c1730" stroke-width="1.2"/><rect x="-10" y="-1" width="20" height="7" rx="1" fill="#24446e"/><rect x="-7" y="-7" width="6" height="4" fill="#ff315e"/><rect x="2" y="-7" width="6" height="4" fill="#00cfff"/><circle cx="-13" cy="16" r="4" fill="#05070d"/><circle cx="13" cy="16" r="4" fill="#05070d"/><animateTransform attributeName="transform" type="translate" values="0 0;76 102;0 0" dur="7.1s" begin="-3s" repeatCount="indefinite"/></g></g><g transform="translate(600 320)" filter="url(#glowPink)"><g><path d="M-30 18 C-33 -8 -25 -40 0 -52 C25 -40 33 -8 30 18 L22 44 H-22 Z" fill="#090711" stroke="#ff32c8" stroke-width="2.2"/><path d="M-22 -14 C-17 -32 17 -32 22 -14 L18 1 H-18 Z" fill="#181020"/><path d="M-17 -10 H17 L11 1 H-11 Z" fill="#f3d4a8"/><path d="M-10 -5 L-3 -7 L-6 -2 Z" fill="#00e5ff"/><path d="M10 -5 L3 -7 L6 -2 Z" fill="#00e5ff"/><path d="M-25 13 L-46 27 L-41 34 L-21 27M25 13 L46 27 L41 34 L21 27" stroke="#0a0711" stroke-width="8" stroke-linecap="round"/><path d="M-15 44 L-18 64M15 44 L18 64" stroke="#0a0711" stroke-width="9" stroke-linecap="round"/><animateTransform attributeName="transform" type="translate" values="0 0;0 -7;0 0" dur="2.4s" repeatCount="indefinite"/></g><ellipse cx="0" cy="66" rx="32" ry="6" fill="#000000" opacity=".45"><animate attributeName="rx" values="32;25;32" dur="2.4s" repeatCount="indefinite"/></ellipse></g><g fill="#00e5ff" opacity=".8"><circle cx="350" cy="132" r="1.7"><animate attributeName="opacity" values=".1;1;.1" dur="2.3s" repeatCount="indefinite"/></circle><circle cx="870" cy="118" r="1.5"><animate attributeName="opacity" values="1;.2;1" dur="3.1s" repeatCount="indefinite"/></circle><circle cx="792" cy="196" r="1.4"><animate attributeName="opacity" values=".2;1;.2" dur="1.7s" repeatCount="indefinite"/></circle></g><rect x="24" y="58" width="1152" height="338" fill="none" stroke="#00e5ff" stroke-opacity=".18"/></g></svg>